<svg xmlns="http://www.w3.org/2000/svg" width="24" height="24" fill="none"><path fill="currentColor" d="m10.84 20.1-1.35-1.325a62.416 62.416 0 0 1-4.512-4.763C3.66 12.454 3 10.783 3 9c0-1.417.454-2.604 1.362-3.563C5.27 4.479 6.395 4 7.737 4c.758 0 1.512.187 2.262.562.75.375 1.417.98 2.001 1.813.584-.833 1.252-1.438 2.002-1.813.75-.375 1.503-.562 2.261-.562 1.342 0 2.467.479 3.375 1.437C20.546 6.396 21 7.583 21 9c0 1.8-.671 3.487-2.013 5.062a63.69 63.69 0 0 1-4.5 4.738l-1.326 1.275c-.332.333-.719.5-1.161.5-.442 0-.829-.158-1.16-.475Zm.473-12.2c-.505-.833-1.042-1.442-1.61-1.825-.569-.383-1.224-.575-1.966-.575-.948 0-1.737.333-2.369 1-.631.667-.947 1.5-.947 2.5 0 .8.245 1.637.734 2.512.49.875 1.106 1.746 1.848 2.613a35.535 35.535 0 0 0 2.403 2.537c.86.825 1.662 1.596 2.404 2.313.048.05.111.075.19.075a.249.249 0 0 0 .19-.075 920.18 920.18 0 0 1 2.404-2.313c.86-.825 1.661-1.67 2.403-2.537a16.176 16.176 0 0 0 1.848-2.613c.49-.875.734-1.712.734-2.512 0-1-.316-1.833-.947-2.5-.632-.667-1.422-1-2.369-1-.742 0-1.397.192-1.966.575-.568.383-1.105.992-1.61 1.825a.837.837 0 0 1-.308.275.805.805 0 0 1-.379.1.805.805 0 0 1-.379-.1.837.837 0 0 1-.308-.275Z"></path></svg>