<svg viewBox="0 0 40 40" fill="none" xmlns="http://www.w3.org/2000/svg" name="Categories/homeStaff.svg">
                <path d="M31.842 13.1v-.86c0-2.154-1.771-3.907-3.947-3.907h-15.79c-2.176 0-3.947 1.753-3.947 3.906v.861C6.358 13.463 5 15.04 5 16.927v7.812c0 3.578 1.91 5.469 5.526 5.469h2.369v2.344c0 .431.353.781.79.781.435 0 .789-.35.789-.781v-2.344h11.052v2.344c0 .431.354.781.79.781.436 0 .79-.35.79-.781v-2.344h2.368c3.616 0 5.526-1.89 5.526-5.469v-7.812c0-1.886-1.358-3.464-3.158-3.827zM12.105 9.896h15.79c1.306 0 2.368 1.051 2.368 2.343v.861c-1.8.363-3.158 1.94-3.158 3.827v5.468h-14.21v-5.468c0-1.886-1.358-3.464-3.158-3.827v-.86c0-1.293 1.063-2.344 2.368-2.344zm21.316 14.843c0 2.702-1.217 3.906-3.947 3.906H10.526c-2.73 0-3.947-1.204-3.947-3.906v-7.812c0-1.292 1.063-2.344 2.368-2.344 1.306 0 2.369 1.052 2.369 2.344v6.25c0 .431.353.781.79.781h15.789c.436 0 .79-.35.79-.781v-6.25c0-1.292 1.062-2.344 2.368-2.344 1.305 0 2.368 1.052 2.368 2.344v7.812z" fill="currentColor"></path>
            </svg>