<svg viewBox="0 0 40 40" fill="none" xmlns="http://www.w3.org/2000/svg" name="Categories/RealEstate.svg">
                <path d="M5.031 35.014h30M26.695 10.023h-13.33a4.995 4.995 0 00-4.994 4.991v19.984h23.335V15.031c-.016-2.772-2.254-5.008-5.01-5.008z" stroke="currentColor" stroke-width="1.5" stroke-linecap="round" stroke-linejoin="round"></path>
                <path d="M20.03 28.352a3.335 3.335 0 00-3.34 3.34v2.981a.36.36 0 00.357.357h5.967a.36.36 0 00.357-.357v-2.982a3.335 3.335 0 00-3.34-3.338zM25.043 15.031h-1.67V16.7h1.67V15.03zM16.706 15.031h-1.67V16.7h1.67V15.03zM25.043 22.518h-1.67v1.667h1.67v-1.667zM16.706 22.518h-1.67v1.667h1.67v-1.667zM25.024 5.03H15.02a3.335 3.335 0 00-3.34 3.339v1.67h16.67v-1.67a3.31 3.31 0 00-3.325-3.339z" stroke="currentColor" stroke-width="1.5" stroke-linecap="round" stroke-linejoin="round"></path>
            </svg>