<svg viewBox="0 0 40 40" fill="none" xmlns="http://www.w3.org/2000/svg" name="Categories/vehicle2.svg">
                <path d="M33.033 17.7l-.233-1.867H35a.825.825 0 00.833-.833.825.825 0 00-.833-.833h-2.417l-.233-1.784c-.4-2.4-.8-4.883-5.75-4.883H13.4c-4.95 0-5.367 2.483-5.767 4.917l-.216 1.75H5a.825.825 0 00-.833.833c0 .467.366.833.833.833h2.2L6.967 17.7c-.884.25-1.484.7-1.834 1.1-.75.85-1.083 2.067-.916 3.383l.65 5.2c.25 2 .916 4.217 3.466 4.884v2.716c0 .467.367.834.834.834a.825.825 0 00.833-.834v-2.5h20v2.5c0 .467.367.834.833.834a.825.825 0 00.834-.834v-2.716c2.566-.667 3.216-2.9 3.466-4.884l.65-5.2c.167-1.316-.166-2.533-.916-3.383-.367-.4-.95-.85-1.834-1.1zm-23.75-5.05c.4-2.4.584-3.483 4.117-3.483h13.2c3.533 0 3.717 1.1 4.1 3.45l.617 4.883H8.65l.617-4.85h.016zm24.85 9.317l-.65 5.2c-.333 2.7-1.25 3.65-3.483 3.65H10c-2.233 0-3.15-.95-3.483-3.65l-.65-5.2c-.1-.85.083-1.584.516-2.084.434-.483 1.1-.733 1.967-.733h23.317c.866 0 1.533.25 1.966.733.434.5.617 1.234.517 2.084h-.017zM30.05 24.1c.233.233.367.55.367.883 0 .167-.034.334-.1.484a1.249 1.249 0 01-2.033.4 1.292 1.292 0 01-.367-.884c0-.333.133-.65.366-.883.467-.467 1.3-.467 1.767 0zm-18.333 0c.233.233.366.55.366.883 0 .167-.033.317-.1.484-.066.15-.15.283-.266.4a1.293 1.293 0 01-.884.366 1.249 1.249 0 11.484-2.4c.15.05.283.15.4.267zM25 24.983a.825.825 0 01-.833.834h-8.334a.825.825 0 01-.833-.834c0-.466.367-.833.833-.833h8.334c.466 0 .833.367.833.833z" fill="currentColor"></path>
            </svg>